name C:\Users\r0593348\3dpredictsim\Results\MidTarsalJoint\Fal_s1_bCst_PF_Natali2010_ls150_MT_k100_MTP_T5_ig21.mot
datacolumns 128
datarows 4
range 1.76553479 1.80084549
endheader
time	pelvis_tilt	pelvis_list	pelvis_rotation	pelvis_tx	pelvis_ty	pelvis_tz	hip_flexion_l	hip_adduction_l	hip_rotation_l	hip_flexion_r	hip_adduction_r	hip_rotation_r	knee_angle_l	knee_angle_r	ankle_angle_l	ankle_angle_r	subtalar_angle_l	subtalar_angle_r	mtj_angle_l	mtj_angle_r	mtp_angle_l	mtp_angle_r	lumbar_extension	lumbar_bending	lumbar_rotation	arm_flex_l	arm_add_l	arm_rot_l	arm_flex_r	arm_add_r	arm_rot_r	elbow_flex_l	elbow_flex_r	pro_sup_l	pro_sup_r	glut_med1_l/activation	glut_med2_l/activation	glut_med3_l/activation	glut_min1_l/activation	glut_min2_l/activation	glut_min3_l/activation	semimem_l/activation	semiten_l/activation	bifemlh_l/activation	bifemsh_l/activation	sar_l/activation	add_long_l/activation	add_brev_l/activation	add_mag1_l/activation	add_mag2_l/activation	add_mag3_l/activation	tfl_l/activation	pect_l/activation	grac_l/activation	glut_max1_l/activation	glut_max2_l/activation	glut_max3_l/activation	iliacus_l/activation	psoas_l/activation	quad_fem_l/activation	gem_l/activation	peri_l/activation	rect_fem_l/activation	vas_med_l/activation	vas_int_l/activation	vas_lat_l/activation	med_gas_l/activation	lat_gas_l/activation	soleus_l/activation	tib_post_l/activation	flex_dig_l/activation	flex_hal_l/activation	tib_ant_l/activation	per_brev_l/activation	per_long_l/activation	per_tert_l/activation	ext_dig_l/activation	ext_hal_l/activation	ercspn_l/activation	intobl_l/activation	extobl_l/activation	glut_med1_r/activation	glut_med2_r/activation	glut_med3_r/activation	glut_min1_r/activation	glut_min2_r/activation	glut_min3_r/activation	semimem_r/activation	semiten_r/activation	bifemlh_r/activation	bifemsh_r/activation	sar_r/activation	add_long_r/activation	add_brev_r/activation	add_mag1_r/activation	add_mag2_r/activation	add_mag3_r/activation	tfl_r/activation	pect_r/activation	grac_r/activation	glut_max1_r/activation	glut_max2_r/activation	glut_max3_r/activation	iliacus_r/activation	psoas_r/activation	quad_fem_r/activation	gem_r/activation	peri_r/activation	rect_fem_r/activation	vas_med_r/activation	vas_int_r/activation	vas_lat_r/activation	med_gas_r/activation	lat_gas_r/activation	soleus_r/activation	tib_post_r/activation	flex_dig_r/activation	flex_hal_r/activation	tib_ant_r/activation	per_brev_r/activation	per_long_r/activation	per_tert_r/activation	ext_dig_r/activation	ext_hal_r/activation	ercspn_r/activation	intobl_r/activation	extobl_r/activation	
          1.76553479	         -2.92764329	          2.53498955	         -6.17034653	          2.20691849	          0.91886391	          0.00229969	         28.64029750	          3.57518610	         -2.31858441	        -15.97573680	         -1.60651369	          6.45619979	         -7.71556598	        -10.01759271	          5.69207455	         -4.77841256	         -7.25940362	          9.15345302	         -0.43001964	          9.84965418	          1.25541688	          3.20007384	         -1.90201226	         -0.55820313	          2.50086360	         -5.49483721	        -13.46277676	          8.47658105	          6.23591040	        -13.45118486	         18.52000830	         14.74045294	         35.45456559	         86.51662706	         86.51662706	          0.05980846	          0.05980842	          0.05000078	          0.05980855	          0.05980849	          0.05005193	          0.21985176	          0.10581543	          0.13858722	          0.09312822	          0.05000039	          0.14647848	          0.23317295	          0.27957034	          0.21993152	          0.11620313	          0.05000038	          0.05000646	          0.16070458	          0.05980557	          0.09753252	          0.14802861	          0.05000038	          0.05000027	          0.14356386	          0.25765368	          0.11817380	          0.05000031	          0.07785252	          0.07618762	          0.07156359	          0.06866782	          0.07115707	          0.06253129	          0.05000015	          0.05000100	          0.05000091	          0.42171826	          0.26083049	          0.17922131	          0.10375357	          0.47783565	          0.22580494	          0.05390040	          0.12556758	          0.10489742	          0.23805309	          0.10236443	          0.07440742	          0.24852304	          0.17931516	          0.11622749	          0.05000489	          0.05000068	          0.05000044	          0.05000194	          0.11703546	          0.05000055	          0.05000078	          0.05000076	          0.05000179	          0.05000106	          0.31528203	          0.05000422	          0.05000173	          0.05000811	          0.05000415	          0.05000202	          0.44734745	          0.63870969	          0.05000031	          0.05000146	          0.06151349	          0.32201890	          0.05000071	          0.05000071	          0.05000064	          0.27781894	          0.38399118	          0.37146067	          0.25880491	          0.21812836	          0.29534955	          0.05000011	          0.05980829	          0.14042250	          0.05000070	          0.05000020	          0.05000066	          0.05000002	          0.05000012	          0.05000088	
          1.77730502	         -2.93017637	          2.60477436	         -6.47367575	          2.22478303	          0.91788868	          0.00210853	         27.97077825	          3.95101385	         -2.06278338	        -16.02860656	         -1.93268413	          6.26680160	         -8.23951089	        -11.62717501	          5.05229122	         -5.20077188	         -7.58874887	         10.11077557	         -0.53425340	          8.44428559	          1.24199178	          5.19218337	         -1.68845208	         -0.72682282	          2.58060979	         -6.49340628	        -13.45101610	          8.34345850	          5.91375277	        -13.46140677	         18.74830463	         14.40790699	         36.75760299	         86.51662706	         86.51662706	          0.05000004	          0.05000012	          0.08145244	          0.05000013	          0.05000015	          0.05000019	          0.18379647	          0.08846193	          0.11585915	          0.07785551	          0.05982132	          0.12245683	          0.29167418	          0.28106678	          0.18386743	          0.10037125	          0.05000071	          0.07157969	          0.13435950	          0.05000274	          0.10399353	          0.13769468	          0.05000248	          0.07035064	          0.52011783	          0.21539904	          0.09879411	          0.05980916	          0.06508573	          0.06369394	          0.05982817	          0.06897382	          0.07154095	          0.06247663	          0.05980852	          0.05011575	          0.05980740	          0.45117588	          0.26968666	          0.22447555	          0.08673898	          0.39947161	          0.18877340	          0.05000002	          0.10497467	          0.08769438	          0.19901289	          0.08557697	          0.06220506	          0.20776609	          0.14990797	          0.09716659	          0.05000725	          0.05000206	          0.05000217	          0.05000094	          0.09784306	          0.05982092	          0.05255156	          0.05980872	          0.05979268	          0.05980496	          0.26357666	          0.05980826	          0.05978382	          0.05001453	          0.05000988	          0.05001421	          0.37398333	          0.60720718	          0.05981687	          0.05981297	          0.05438220	          0.26920836	          0.10886821	          0.12186954	          0.14447778	          0.23225703	          0.32101730	          0.32830356	          0.21825299	          0.18235679	          0.24691403	          0.05000010	          0.05000056	          0.15916208	          0.05000035	          0.05000009	          0.05000049	          0.05071915	          0.06743186	          0.07154071	
          1.78907525	         -2.92814209	          2.67520389	         -6.73822859	          2.24299798	          0.91690875	          0.00194545	         27.20702689	          4.21488940	         -1.77959151	        -16.06215503	         -2.25882647	          6.07452914	         -8.86235483	        -13.25435110	          4.44699524	         -5.70661153	         -7.92034646	         11.01904467	         -0.71240598	          6.74212678	          1.30233387	          7.53690133	         -1.45325806	         -0.90757660	          2.64610130	         -7.52515279	        -13.45040475	          8.25546152	          5.49210248	        -13.46923045	         18.87759222	         14.14245378	         38.05578783	         86.51662706	         86.51662706	          0.23300779	          0.22537693	          0.24567592	          0.32801649	          0.22935639	          0.19283306	          0.15365426	          0.07396229	          0.09685870	          0.07200919	          0.05001129	          0.10237418	          0.24384012	          0.23497245	          0.15371398	          0.11981637	          0.05000120	          0.05984196	          0.11232587	          0.05000182	          0.12056852	          0.11511432	          0.05001228	          0.05881345	          0.43481923	          0.18007411	          0.19147894	          0.05000061	          0.05441197	          0.05324843	          0.05001663	          0.05766225	          0.05980841	          0.05223057	          0.05000019	          0.05000084	          0.05000092	          0.51713175	          0.34943019	          0.18766223	          0.35212593	          0.50179109	          0.18625912	          0.05663774	          0.12694702	          0.07331263	          0.29735775	          0.07154292	          0.06469357	          0.28964038	          0.12532382	          0.08123186	          0.05000333	          0.05000042	          0.05000036	          0.05000077	          0.08180574	          0.05001056	          0.05000058	          0.05000098	          0.05000147	          0.05000095	          0.23907363	          0.05000440	          0.05000192	          0.05002678	          0.05001062	          0.05000265	          0.31265101	          0.59127211	          0.05000851	          0.05001838	          0.05016986	          0.22505865	          0.09102186	          0.10188884	          0.12078796	          0.19416717	          0.26837090	          0.27446219	          0.18245995	          0.15245087	          0.20642076	          0.05000016	          0.09522239	          0.16709230	          0.05000069	          0.05000114	          0.05000071	          0.05000015	          0.05637313	          0.05980815	
          1.80084549	         -2.92386361	          2.74249367	         -6.95933010	          2.26132476	          0.91601158	          0.00175469	         26.43546533	          4.44563289	         -1.49952107	        -16.01459399	         -2.57622523	          5.89944530	         -9.46233246	        -14.97655037	          3.80736198	         -6.31059725	         -8.24082586	         11.87547987	         -0.62724066	          4.78151494	          1.35039548	         10.16198662	         -1.22209231	         -1.09519134	          2.70166810	         -8.53541092	        -13.45173420	          8.21017166	          5.01172111	        -13.48172188	         18.93464913	         13.91706434	         39.31979821	         86.51662706	         86.51662706	          0.33385624	          0.33787695	          0.35825203	          0.27422275	          0.21077396	          0.22948988	          0.12845532	          0.06184243	          0.08097475	          0.06020007	          0.05000288	          0.08558502	          0.20385074	          0.19643761	          0.12850579	          0.14925553	          0.05000135	          0.05002877	          0.09390505	          0.21082653	          0.18278265	          0.14451649	          0.05000018	          0.05000020	          0.36350952	          0.15054238	          0.16007741	          0.05000028	          0.07619895	          0.08117545	          0.06057123	          0.05000009	          0.05000027	          0.05000003	          0.05000059	          0.05000073	          0.05000079	          0.59446984	          0.35794046	          0.19890356	          0.44364987	          0.52874731	          0.29793825	          0.07774047	          0.10612790	          0.06128947	          0.25278911	          0.05981010	          0.05408412	          0.24214095	          0.10477108	          0.06791014	          0.05000464	          0.05000055	          0.05000051	          0.05000051	          0.06839056	          0.05499694	          0.05000341	          0.05000332	          0.05000598	          0.05000257	          0.19986625	          0.05624356	          0.05000347	          0.05000969	          0.05000536	          0.05000336	          0.26137676	          0.55294908	          0.05000116	          0.05000431	          0.05000083	          0.18814934	          0.12244306	          0.12244305	          0.12244308	          0.16232400	          0.22435844	          0.22945073	          0.15253683	          0.12744936	          0.17256820	          0.06877073	          0.07966197	          0.17794657	          0.05000181	          0.11214753	          0.05000463	          0.06550712	          0.05000004	          0.05000010	
